# 3ds Max Wavefront OBJ Exporter v0.99 - (c)2007 guruware
# File Created: 22.11.2022 12:13:36

mtllib Ex 1  3D Studio Max.mtl

#
# object Plane001
#

v  -3.149606 0.000000 -2.285433
v  -3.149606 0.000000 2.285433
v  3.149606 0.000000 2.285433
v  3.149606 0.000000 -2.285433
# 4 vertices

vn 0.000000 1.000000 -0.000000
# 1 vertex normals

vt 0.000000 1.000000 0.000000
vt 0.000000 0.000000 0.000000
vt 1.000000 0.000000 0.000000
vt 1.000000 1.000000 0.000000
# 4 texture coords

o Plane001
g Plane001
usemtl Material__45
s 1
f 1/1/1 2/2/1 3/3/1 4/4/1 
# 1 polygons

